<svg xmlns="http://www.w3.org/2000/svg" xmlns:xlink="http://www.w3.org/1999/xlink" xml:space="preserve" id="svg176" width="130.818" height="141.232" viewBox="0 0 130.818 141.232"><style id="style_common">.building{fill:#1a2632}.floor{fill:#70777f}.stairs{fill:gold}.shadow{filter:drop-shadow(0 0 2px #000)}.wall{fill:none;stroke:#000;stroke-width:.2}</style><defs id="defs1"><path id="stair-1" d="M39.143 95.297v11.283h3.052V95.297Z"/><path id="stair-2" d="M30.162 114.287h-6.597v3.006h6.597Z"/><path id="stair-3" d="M23.794 120.316h2.873v1.517h-2.874Z"/><path id="stair-4" d="M28.325 75.143v3.07h1.44v-3.07Z"/><path id="stair-7" d="m75.19 95.25 9.07.016-.009 2.951-9.07-.015Z"/><path id="stair-8" d="M87.087 63.396v8.309h2.976v-8.309Z"/><path id="stair-220" d="M86.183 49.887V39.552h4.96v10.335Z"/><path id="stair-221" d="M98.587 39.146h2.931V37.88h-2.931Z"/><path id="stair-222" d="M98.458 9.622v1.423h2.942V9.622Z"/><path id="stair-223" d="M45.857 62.773h1.362v4.886h-1.362Z"/><path id="stair-224" d="M54.414 60.033h1.362v4.885h-1.362Z"/><path id="stair-69" d="M18.214 111.316v6.069h2.736v-6.069Zm1.303 1.166h.13v3.735h-.13Z"/><path id="stair-96" d="M14.176 69.464v5.853h2.736v-5.853Zm1.303 1.125h.13v3.601h-.13Z"/><path id="stair-97" d="M52.088 93.47v6.047h2.736V93.47Zm1.303 1.163h.13v3.72h-.13Z"/><path id="stair-100" d="M70.335 93.47v6.047h2.736v-6.046Zm1.303 1.163h.13v3.72h-.13Z"/><path id="stair-101" d="M96.729 21.854h-5.854v2.736h5.854Zm-1.125 1.302v.131h-3.602v-.13Z"/><path id="stair-129" d="M46.685 43.537v6.055h2.736v-6.055Zm1.303 1.164h.13v3.725h-.13Z"/><path id="stair-62" d="M28.03 29.732h-2.725v-4.155h2.726"/><path id="stair-127" d="M30.335 39.708h-6.357v3.205h6.357Zm-1.563 1.526v.153H25.46v-.153Z"/><path id="stair-128" d="M30.335 65.867h-6.357v3.205h6.357Zm-1.563 1.526v.153H25.46v-.153Z"/><path id="stair-63" d="M24.73 87.381h2.913v1.28H24.73"/><path id="stair-130" d="M24.742 72.32h2.914v1.278h-2.914"/><path id="stair-131" d="m84.053 42.674-1.44.002.012 3.727 1.44-.002Z"/><path id="stair-132" d="M83.383 39.415h1.226v-5.459h-1.226Z"/><path id="stair-140" d="M33.332 94.616h-1.279v2.905h1.279Z"/><path id="stair-141" d="M47.728 94.66h-1.28v2.904h1.28Z"/><path id="stair-155" d="M52.506 20.887v-3.448h-1.172v3.448Z"/><path id="stair-226" d="M70.98 25.55v-3.605h-1.172v3.604Z"/><path id="stair-134" d="M92.297 42.948V48.8h3.141v-5.853Zm1.496 1.125h.15v3.601h-.15Z"/><path id="stair-135" d="M12.012 65.049h3.227v1.376h-3.227Z"/><path id="stair-136" d="M53.684 6.4h2.932v1.32h-2.932Z"/><path id="stair-138" d="M53.18 30.076h2.956v-1.229H53.18Z"/><path id="stair-139" d="M78.177 37.657h-2.878v1.357h2.878Z"/><path id="stair-143" d="M.148 74.724V71.8h1.41v2.925Z"/></defs><g id="Basement" class="shadow" data-layer="Basement"><g id="Floor-b" class="floor"><path d="M78.96 44.17h1.525v6.639H78.96zm-4.072 0h1.526v6.639h-1.526z"/><path d="m94.744 0-.002 10.102h.715v.285h-.715l-.002 8.146h-4.22v3.469H82.7v5.463h-7.44v.988h-6.154V12.566H60.32v-.63h.504V6.302h-7.648v2.922h4.748v3.341h-4.748V30.45h8.972v11.385h2.938v9.434h.346v.652H45.693v4.185h-19.71V45.192h7.14v-5.476H25.5v1.701h3.238v1.777h-4.777v25.83h6.645v.596H17.758v2.596h-.608v-.31h-4.357v3.929h-.3v-.35H8.138v1.041H2.97v-7.213H0v9.2h12.492v-.452h.6v.465h4.058v-.523h.62v.475h3.18v-6.573h-1.204v-.285h8.002v-.857h.297l.004 7.754h2.06v9.091h-6.086l.02 8.274h-.672v-1.998h-5.588v7.474h5.588V96.96h.676l.006 2.508 6.137.03-.03 14.819-6.373-.029v3.026l6.654.029v.545h-6.464v4.297h9.148v-12.629h9.08V95.248h-3.053v11.332h-6.027V84.871h12.568v2.453h10.205v-8.416h9.213v5.49h3.032v-5.49h7.052v12.569h-6.449v6.9H82.56v-3.662l-7.358-.02v-.533l14.703-.012v4.409h.94v.394H89.09v1.483H69.334v4.419h43.439v-4.419H93.781v-1.483H92.03v-.394h.864v-4.41l9.962-.006V72.357h-2.037V59.883h-2.002v.598h-8.742v-6.59h8.742v.586h2.002v-.586h2.446V34.883h.683v-7.397h-.683V9.216l-5.976.008v2.052l-.376-.007v-.882h-.46v-.285h.46V2.023h2.621V0Zm2.168 12.414.376.007v.504l3.191-.007v11.814h-3.567zm0 14.274h3.567v8.916h-3.233v.771h-9.021v.445h-.32v-.445h-4.792v-2.643h-5.877v-.543h-.44v-.226l.44.004v-2.518h19.676Zm-32.789 3.761H75.26v2.5l.486.004v.236h-.486v.543h-1.95v5.557h5.803v.543h-14.99Zm23.781 8.494h.32v.346h5.557v.568h-1.506v4.471h3.163V39.29h5.041v12.63H90.074v-2.032h1.069V43.06h-4.96v6.828h.877v2.033h-8.392v-9.074h2.1v-3.014h-.569v-.543h7.705zm-19.781 3.903h8.594v9.074h-1.75v1.97h.785l-.016 6.59h-7.593v-6.59h.623v-1.97H67.68v-.652h.443ZM55.898 54.895h9.213v8.56h.438v.244h-.438v11.873h.438v.284h-9.65Zm-22.804 3.193h12.6v23.808H33.122l-.041-12.277h-1.476v-.596h1.488zm34.588 5.367H87.06v5.156h2.974v-5.156h7.86v8.902h-22.7v3.498h-7.513v-.283h.46V63.7h-.46z"/></g><g id="Stairs-b" class="stairs"><g id="Connector-Ground_Floor"><use xlink:href="#stair-1"/><use xlink:href="#stair-2"/><use xlink:href="#stair-3"/><use xlink:href="#stair-4"/><use xlink:href="#stair-7"/><use xlink:href="#stair-8"/><use xlink:href="#stair-220"/><use xlink:href="#stair-221"/><use xlink:href="#stair-222"/><use xlink:href="#stair-223"/><use xlink:href="#stair-224"/><use xlink:href="#stair-136"/><use xlink:href="#stair-140"/><use xlink:href="#stair-128"/><use xlink:href="#stair-127"/><use xlink:href="#stair-138"/><use xlink:href="#stair-139"/><use xlink:href="#stair-134"/><use xlink:href="#stair-143"/></g></g><path id="Wall-b" d="M54.519 81.14a3.596 3.596 0 1 1-7.192 0 3.596 3.596 0 0 1 7.192 0m0-22.263a3.596 3.596 0 1 1-7.192 0 3.596 3.596 0 0 1 7.192 0m0 10.773a3.596 3.596 0 1 1-7.193-.001 3.596 3.596 0 0 1 7.193 0zM91.7 87.014l1.456-6.348 2.03.466-1.455 6.348zm2.31.396.37-2.16 2.054.351-.37 2.16zm-4.155-1.996h1.666v1.744h-1.666zm.405-.597.383-1.797 1.735.37-.382 1.796zm-3.847 2.958h1.127v1.127h-1.127zm0-9.877h1.127v1.126h-1.127zm13.658 3.395h1.852v1.852h-1.852zm.401 2.3h1.513v2.546h-1.513zm-.492 2.685h1.851v1.852H99.98z" class="building"/></g><g id="Ground_Floor" data-layer="Ground_Floor"><path id="Floor" d="M97.297 2.541v3.762H50.082l-.408 2.953h8.162v.297l-16.424.008H31.037v-.305h18.225l.404-2.953H25.293v2.953h4.875v.305h-4.875v5.504H1.545v6.412h23.748v17.957h4.959v.343h-5.684v3.203h6.524v2.528H27.01v.912h-.16v-.912h-5.754v4.959h5.754v-2.893h.152l.01 2.893h2.306v.336h-6.162v7.591h6.106v.268h-6.106v7.057h8.432v.115h-6.98v3.205h6.675v.305H3.355l-.003 5.076H2.9v-5.104H.014v17.746H2.9V75.316h.452l-.006 6.552-.008 12.524H2.9v-2.995H.04v29.834h3.278v4.846h4.717v-.611h.28v15.767h6.484v-20.65h.285v1.678h15.588v-2.174h2.594v-2.328h-1.489v-.381h1.565l.01-11.359.01-11.446h5.779l.01 6.028.01 5.961h3.013l.01-5.999.01-5.99h4.11v3.424h-.18v-3.242h-3.739v4.787h3.738v-.516h.182v.516H56.58v24.353h6.432V99.54l20.318-.01 20.096-.01v-2.45h24.363v-6.413h-24.363l.006-11.58h.248v2.3h2.574v-1.96h.318v2.28h-2.892v4.966h17.861V74.398l-2.006.116-.15-2.617 1.439-.102-.207-9.274-.802-2.48.548-4.197 1.071-4.213-.086-4.309 4.111-.572V34.926h1.367v-6.15h-4.851v6.789h-8.522v-.3h7.828v-6.44l-19.742-.02-.01-5.68.022-5.56 8.508-.032h8.476V9.457h12.283V3.096h-12.283V2.54Zm4.299 6.18h.953v.687h-.953v-.191h-4.35v1.527h-.305v-.496h-.572v-.695h-.31v-.297h.394v-.324l2.578-.01 2.565-.01Zm-41.508.535h2.137v.297h-.764v.695h-.649v-.695h-.724zm4.31 0h1.297v.297h-1.297zm4.045 0h.99v.297h-.99zm3.739 0h13.65v.297h-13.65Zm16.404 0h1.031v.297h-1.031zm3.777 0h.996l-.023.297h-.973zm4.578 2.822h.305v14.23h-.306l.002-7.115zm-.002 15.375h.307v.916h.652v.87h-.7v-.675h-.259zM82.367 33.54l1.088.02.01 3.023.01 2.852h2.709v10.453h4.959V39.375h3.265v.344h-2.136v3.177h3.168v-1.193h.76v.186h-.436v7.668h-.248v-.434H92.14v2.149h3.375v-1.053h.248v1.062h2.95v.254h-14.63V39.701H73.289v-3.853h.383v3.455h9.33v-5.381h-.635zm-9.078.002 8.106.018v.363h-7.723v.97h-.383Zm23.652 1.725h2.633v.304h-2.328v1.078h-.305zm3.778 0h4.502v17.3h-1.793v-.39h-.801v-.64h-2.914v-.255h3.623v-5.283h-5.848v-4.11h-.422v-.185h4.057v.186h-3.428v3.925h5.641V41.89h-1.356v-.186h1.356V39.72h-7.908v-.344h1.513V37.81h.305v1.566h6.027V35.57h-2.554zm7.467 0h1.917v.299h-1.548v20.548h-4.899v3.35h3.237v.613h-.366v-.273h-2.847v.273h-.237l.002-4.582 2.567-.01 2.174-.01zM36.93 38.594h.69l-.013.562-.01.621H33.42v3.7h-.344v-3.7h-1.601v-.343h5.455zm23.883 0h.648v.81h2.957v.315h-3.605zm4.634.81h3.987v.87h-.877v11.253h.877v.649h-.877v11.217h.84v.687h-.84v11.178h.88l-.011.334-.01.334-.43.01-.43.011v1.141h-.304v-1.145h-.764v-.685h.764V64.08h-.725v-.687h.725V52.176h-.764v-.649h.764V40.273h-.764v-.554h-2.04zM.86 42.81v26.233h11.15v-2.687h5.276v2.687h5.602V50.85H20.77V45.2h3.063v-2.39Zm32.217 1.85h.344v22.09h-.344l-.002-3.004-.002-16.178zm70.365 16.283h.239v2.05h2.847v-2.05h.366v2.278h1.388v5.992h2.758v5.9h-4.467v2.78h-.318v-2.756h-2.574v3.053h-.246l.002-5.135zm-70.365 7.028h.344v.687l-.04.686-.036 10.244v10.244H28.15l.012-.22.012-.23H33V69.345h-.5v-.305h.576zm35.176 18.808h.305v.42h.877v.649h-.877v.304h-.305v-.304h-.764v-.649h.764ZM2.9 95.44h.457l-.01 4.073-.01 4.072H2.9zm0 9.215h.438v5.455H2.9zm0 6.512h.438l.01 3.111.01 3.1h2.378v.305H2.9Zm3.9 6.211h1.514v6.791h-.279v-6.486H6.801Zm7.999 0h15.224v.381H15.084v1.775h-.285z" class="floor"/><path id="Ledge" d="M45.923 52.65h9.771v34.11h-9.77zm32.935-9.325h1.526v6.638h-1.526zm-4.884 0H75.5v6.638h-1.526zM33 69.344v20.039h-4.826V69.344Z" style="fill:#c6c2c2"/><path id="Obstacles" d="M25.943 22.897h4.823v1.698h-4.823zm36.844-8.264h5.37v12.985h-5.37zm-23.152 9.446h1.908v2.058h-1.908zm31.151 36.778h2.79v5.495h-2.79zm3.548.619 2.774.294-.58 5.465-2.774-.294zm11.698 15.437.97 2.616-5.154 1.909-.97-2.616zm4.665 2.867h2.79v5.495h-2.79zm4.904-.778h2.79v5.496H95.6zM89.96 74.7h5.176v2.8H89.96zm11.191-7.943h-2.474v6.187h2.474zM76.198 89.613l-1.818-5.247-1.813.628 1.818 5.247zM48.427 87.64l-4.801 2.12-.734-1.662 4.8-2.12ZM73.666 6.369c.155.01 1.893.083 1.893.083l-.043.981-1.893-.083zm-50.98 10.495-.2 1.695-4.81-.568.201-1.695zM58.828 51.63l4.87.02.007-1.696-4.87-.02zm9.34-5.3-4.84-.42-.145 1.677 4.84.42zm-3.01-5.26-.03 4.87 1.667.01.03-4.869zM54.076 14.633h5.286v12.985h-5.286zm42.554 38.88-.073.521.213.03-.035.248-1.336-.188-.015.117 1.279.18-.074.533-1.283-.18-.018.126 1.34.187-.031.22-.211-.029-.077.536.957.134.036-.252 2.425.34.256-1.82-2.441-.342.033-.228zm1.585 10.698.013-.526-.215-.005.007-.25 1.349.034.002-.118-1.292-.034.014-.538 1.295.034.003-.127-1.352-.034.006-.223.213.005.015-.54-.966-.026-.007.254-2.449-.063-.048 1.838 2.465.063-.008.23zm-6.14-8.827.012-.526-.215-.005.007-.25 1.349.034.002-.118-1.291-.034.013-.538 1.295.033.003-.126-1.352-.035.006-.222.213.005.015-.54-.966-.026-.007.254-2.448-.063-.049 1.837 2.465.064-.007.23zm-8.515 3.444-.283-.444-.18.116-.135-.212 1.139-.723-.065-.1-1.09.694-.29-.455 1.094-.695-.068-.106-1.141.726-.12-.188.18-.115-.29-.457-.815.518.137.215-2.068 1.314.986 1.552 2.08-1.323.123.195zM33.63 91.2l.045.525.214-.019.02.25-1.344.113.011.118 1.287-.108.046.536-1.29.11.01.125 1.348-.114.018.222-.212.018.044.539.963-.08-.021-.254 2.44-.206-.153-1.832-2.457.208-.018-.23zm-21.943 16.16-.506-.146-.06.206-.24-.07.377-1.296-.114-.032-.36 1.241-.518-.15.362-1.244-.122-.036-.377 1.299-.214-.062.06-.205-.52-.152-.27.928.245.071-.684 2.352 1.765.514.688-2.367.221.065zm101.1-96.389.053.524.214-.022.024.25-1.343.132.013.117 1.285-.126.054.536-1.289.127.012.126 1.347-.134.021.222-.212.022.053.538.961-.095-.024-.253 2.437-.241-.18-1.83-2.454.244-.021-.23zm-3.693-3.464.125-.511-.209-.051.06-.243 1.31.323.027-.115-1.254-.31.128-.523 1.258.31.03-.123-1.313-.323.053-.216.207.05.131-.524-.939-.232-.061.247-2.378-.585-.441 1.784 2.394.59-.056.223zM78.48 42.354h2.42v6.374h-2.42zM37.045 66.097l.4-.343-.14-.163.19-.162.877 1.024.09-.077-.841-.982.409-.35.842.984.096-.083-.88-1.027.17-.145.138.162.412-.35-.629-.735-.193.165-1.593-1.86-1.397 1.195 1.604 1.872-.176.15zM9.089 19.96l.194-.489-.2-.08.094-.232 1.252.502.043-.11-1.199-.48.2-.5 1.202.48.047-.117-1.256-.502.083-.207.198.079.202-.501-.898-.36-.094.236-2.274-.91-.684 1.707 2.29.915-.087.214zm35.275-7.643-.42.317.13.171-.2.15-.812-1.078-.094.072.777 1.033-.43.324-.78-1.035-.1.075.813 1.081-.178.134-.129-.17-.432.324.58.773.204-.153 1.473 1.957 1.47-1.105-1.483-1.97.184-.138zm46.192 9.67-.501.163.066.204-.238.077-.416-1.284-.112.038.398 1.23-.512.166-.4-1.233-.12.038.417 1.287-.211.069-.067-.203-.514.166.297.92.242-.08.755 2.33 1.75-.565-.76-2.345.22-.07zm33.794 11.431-.485.203.083.198-.232.096-.518-1.246-.109.047.496 1.192-.497.208-.498-1.196-.116.048.52 1.249-.206.085-.082-.196-.499.206.37.893.235-.098.942 2.261 1.697-.706-.948-2.275.214-.088zm-8.889 38.142 2.686-5.491 2.141 1.047-2.686 5.491zm.591-13.956h6.539v2.416h-6.539zm-7.569-6.184h3.176v2.146h-3.176zm5.575-2.298 1.538-1.368 4.729 5.313-1.537 1.369zm2.602-9.968V36.01h2.146v3.143zm1.69 23.63.118 3.16 2.082-.078-.118-3.16z" class="building"/><g id="Stairs" class="stairs"><g id="Stairs-down"><use xlink:href="#stair-1"/><use xlink:href="#stair-2"/><use xlink:href="#stair-3"/><use xlink:href="#stair-4"/><use xlink:href="#stair-7"/><use xlink:href="#stair-8"/><use xlink:href="#stair-220"/><use xlink:href="#stair-221"/><use xlink:href="#stair-222"/><use xlink:href="#stair-223"/><use xlink:href="#stair-224"/><use xlink:href="#stair-136"/><use xlink:href="#stair-140"/><use xlink:href="#stair-138"/><use xlink:href="#stair-139"/><use xlink:href="#stair-143"/></g><g id="Stairs-up"><use xlink:href="#stair-69"/><use xlink:href="#stair-96"/><use xlink:href="#stair-97"/><use xlink:href="#stair-100"/><use xlink:href="#stair-101"/><use xlink:href="#stair-129"/><use xlink:href="#stair-62"/><use xlink:href="#stair-127"/><use xlink:href="#stair-128"/><use xlink:href="#stair-63"/><use xlink:href="#stair-130"/><use xlink:href="#stair-131"/><use xlink:href="#stair-132"/><use xlink:href="#stair-140"/><use xlink:href="#stair-141"/><use xlink:href="#stair-155"/><use xlink:href="#stair-226"/><use xlink:href="#stair-135"/></g></g><path id="Wall" d="m6.505 80.103-.632-6.142 2.356-.207.555 6.14m-.437 7.47h6.095m-6.095 2.469h6.095m-8.871 8.419 11.217-3.882m-10.346 6.289 11.007-3.96M36.87 34.887V28.8m2.316 6.087V28.8m.915-5.374h6.174v-6.02m-6.174 3.087h6.174m1.235 2.933h1.697v-6.02m47.796 11.159v5.219m0 1.036v.462M8.317 130.115H9.67m1.114 0H14.8M118.61 9.457V5.214M3.156 119.686v1.543M59.065 99.64l3.946-.02m-5.06 0h-1.37m46.92-3.955v1.407m0-6.414V94.6m12.221.034v-3.976m0 4.907v1.507M25.193 21.487V17.08m0-1.09v-.925M12.511 17.08v4.407m0-5.497v-.925m44.912 24.3H49.09m9.769 0h1.952m-17.634-1.679 6.048.718m.22-2.276-6.048-.718M32.61 45.5h.464m-1.519 0h-.463m15.218-2.277h-.617v4.167m.001 1.698v.617h8.025v-6.482m.001-1.389v-2.47m-2.933 7.1v-7.1m-2.857 3.859h2.779M118.61 3.96v-.867M89.02 92.69v-1.85h12.656v1.851m0 2.574v1.852H89.02v-1.852m-85.864 9.389v-1.069m5.166 13.88H9.67m1.114 0h3.998M65.696 9.404h2.747m.991 0h2.747m13.651 0h2.754m1.031 0h2.746m.985 0h2.71M3.476 45.675l-2.335.062-.07-2.62 6.038-.16.07 2.601-2.613.07M56.58 111.76h1.371m1.114.022 3.947-.021" class="building wall"/><path id="Building" d="M54.542 81.08a3.55 3.55 0 1 1-7.1 0 3.55 3.55 0 0 1 7.1 0m0-22.1a3.55 3.55 0 1 1-7.1 0 3.55 3.55 0 0 1 7.1 0m0 10.712a3.55 3.55 0 1 1-7.1 0 3.55 3.55 0 0 1 7.1 0m9.62-10.712a2.894 2.894 0 1 1-5.788 0 2.894 2.894 0 0 1 5.788 0m0 22.1a2.894 2.894 0 1 1-5.788 0 2.894 2.894 0 0 1 5.788 0m0-11.388a2.894 2.894 0 1 1-5.788 0 2.894 2.894 0 0 1 5.788 0m12.525-55.758v1.852h-.918v2.822h.918v1.814h7.074v-1.814h5.717v-2.822h-5.717v-1.852z" class="building"/></g><g id="Second_Floor" class="shadow" data-layer="Second_Floor"><path id="Floor-2" d="M33.381 98.473v-1.011h-1.259V94.6h14.193v4.884H33.38ZM51.193 15.38v2.079h1.323v9.986h18.552v-2.093h-1.322V15.38zm7.828 2.079h4.5v7.893h-4.5zm14.324 16.099h10.13v5.852h-10.13Zm-48.077-3.883v9.716h5.05v.385h-5.75v3.205h6.639v.153h-12.59v11.865h2.021v2.556h-2.02v8.088h12.53v.194h-6.54v3.203l4.214.002h2.195v.28h-3.396v20.073h5.373V69.323h-.252v-.281h.334v-3.205h-.947v-.194h.947v-22.51h-.953v-.152h.953v-3.205h-1.668v-.385h.805V37.61h-2.694v-7.935zm-3.141 21.623h8.965v6.218h-8.965V56.34h.191v1.025h4.195v-2.861h-4.195v.763h-.191v-1.984zm61.955-11.525-9.377.026.008 2.922 9.32-.02v-1.504h.361v.631h3.317v.186h-3.317v9.236h7.56v-.816h.228v.816h3.296v-.816h.311v.816h7.09v-5.154h-.893v-.276h.893v-5.714H90.922v.164h-.182v-.164h-6.346v.119h-.312Zm6.658 1.371h.182v.534h1.355v1.181h3.188v-1.181h4.703v4.142h.943v.276h-5.322v3.463h-.31v-.432h-3.297v.432h-.229v-7.545H88.61v-.186h2.131z" class="floor"/><path id="Obstacles-2" d="M21.346 48.344h10.65v.756h-10.65Zm-.347-2.9h9.878v.756h-9.878zm.765-2.31h8.643v.42h-8.643zm-.837 16.73h4.657v.556h-4.657zm7.276 0h4.657v.556h-4.657zm0 2.856h4.657v.557h-4.657zm-7.276 0h4.657v.557h-4.657zm.81 2.503h7.818v.42h-7.818Zm2.995-7.706h1.704v.42h-1.704z" class="building"/><g id="Stairs-2" class="stairs"><g id="Stairs-2-down"><use xlink:href="#stair-62"/><use xlink:href="#stair-63"/><use xlink:href="#stair-130"/><use xlink:href="#stair-131"/><use xlink:href="#stair-132"/><use xlink:href="#stair-140"/><use xlink:href="#stair-141"/><use xlink:href="#stair-155"/><use xlink:href="#stair-226"/><use xlink:href="#stair-135"/><use xlink:href="#stair-134"/><path d="M24.393 56.18c.057-.125.06-.286.152-.379.045-.045.193-.029.25-.043.32-.08.513.133.804.211.212.058.423.037.516.223.026.051.167.251.121.367-.04.102-.15.129-.219.195a.7.7 0 0 1-.296.149c-.085.014-.509-.059-.622-.059s-.504-.038-.671-.222c-.078-.085-.07-.366-.036-.442"/></g><g id="Stairs-2-up"><use xlink:href="#stair-127"/><use xlink:href="#stair-128"/><use xlink:href="#stair-69"/><use xlink:href="#stair-96"/><use xlink:href="#stair-97"/><use xlink:href="#stair-100"/><use xlink:href="#stair-101"/><use xlink:href="#stair-129"/></g></g><path id="Wall-2" d="M28.052 31.87v-.463h-2.784m2.784 1.852v5.617h-2.784m-2.01 17.016v-1.389m1.158 1.389v-1.389m1.157 1.389v-1.389m-5.013.505v-3.664h-.463m-1.017 0h-.463" class="wall"/></g><g id="Third_Floor" class="shadow" data-layer="Third_Floor"><path id="Floor-3" d="M25.293 10.236v.91h5.096v12.038h-5.096v.876h59.674v-.876H34.315V11.146h62.529v-.91zm69.527 14.31v.235l-69.527-.006v.907l25.148.002v12.205l-13.164-.002v.906h3.207l-.062 1.709H33.38v-1.031h-4.612l-.011.142-.012.145h-4.178v3.234h6.506v3.633h-.168v-3.377H25.98v6.104h4.925v-1.83h.168v4.005h-.168v-1.832H25.98v4.618l4.925-.192V52.29h.168v4.064h-.168V54.35l-4.925.21v11.006h4.925v-3.51h.168v3.759l-3.254-.004-3.252-.004v3.232h6.914v.305H3.896l-.005 48.045h14.42v-2.024h-.303l.006-43.869h15.945l-.002 27.961h.906l.002-10.098h14.743l-.002 10.098h.906l.006-54.115h.64l-.006 54.115h16.553l.006-56.066h1.473l-.006 56.066h16.554l.006-47.896h.553l-.004 47.896h.906l.002-15.074h14.741l-.002 15.074h.906l.006-47.896h.516V39.699H84.057v.809l-16.346-.002v-.496h-.31l.134-.203-.594-.397.334-.5-.172-.115 29.838.004V24.547Zm-40.494 1.138 40.494.004v12.205l-40.494-.004Zm-12.87 13.109 24.882.002-.197.295.27.18-.366.548.353.235.05-.072.357.236v.289l-24.573-.004h-.84zm-8.075 4.592h.582l-.002 25.959h-.58v-12.99Zm1.488 0h7.363l6.333.006v.255H46.71v1.696h2.9l-.004 39.451H34.865Zm14.961.006h1.328v.255H49.83zm2.235 0h14.74l-.002 9.677h-14.74Zm18.025 0h13.967v8.17h.775l-.002 20.53H70.088Zm17.107 8.17h14.742l-.002 28.253H87.195Zm-34.466 3.634h13.374v.502H52.732zm-21.825 1.94h.168v4.12h-.168v-2.06zm21.157.69h14.74l-.004 39.67h-14.74Zm-38.256 13.67h3.3v3.043h-.302v2.072h.302l-.003 22.371H4.799l.004-25.48h9.004zm56.28 5.164H84.83l-.004 20.676H70.084v-.082h.191v-1.895h-.191ZM4.8 102.836h12.305l-.002 12.529H4.797Z" class="floor"/><path id="Wall-3" d="M33.463 43.385v-.509m0-1.696v-.677M11.087 72.036h.926v-2.692m-2.47 2.692H4.566v-2.692m26.34-8.847H28.72" class="wall"/><g id="Stairs-3" class="stairs"><g id="Stairs-3-down"><use xlink:href="#stair-127"/><use xlink:href="#stair-128"/><use xlink:href="#stair-69"/><use xlink:href="#stair-96"/><use xlink:href="#stair-97"/><use xlink:href="#stair-100"/><use xlink:href="#stair-101"/><use xlink:href="#stair-129"/></g></g></g></svg>