<svg xmlns="http://www.w3.org/2000/svg" xml:space="preserve" id="svg1" viewBox="0 0 887.701 1043.955"><g id="Ground_Level"><path id="Base_Terrain" d="M-.001 179.715h151.383v-24.11l50.85.67 9.661 5.207L288.8 121.46l18.819-56.332 51.663-16.767 10.188 1.884 22.617-6.06 11.363-13.839 2.421-43.727-6.86-7.793-10.645-5.458L313.86-179.96H-.001Z" data-name="Base Terrain" style="fill:#1f5054"/><path id="Forest" d="M49.689-21.912c-13.48 4.754 1.87 9.325 2.8 11.171 1 2.01 1.77 4.565 3.26 6.05.8.803 3.7.427 4.18 1.397.95 1.885-.04 5.561 2.8 6.981 1.23.615 2.7.466 4.19.466 5.99 0-2.03-10.536.46-13.033.9-.895 4.41.589 5.59 0 1.09-.548 3.35-.556 4.19-1.396.98-.982 1.21-2.468 2.79-3.258 3.15-1.575 14.73 4.821 18.15 1.396 2.04-2.043-4.26-5.854-5.58-6.516-4.73-2.361-10.26-4.665-13.5-7.912-2.17-2.17-7.47 1.379-8.38.465-1.81-1.814-4.31-3.784-6.98-5.12-4.51-2.253-7.02 5.159-8.85 6.982-.9.9-3.32 1.693-5.12 2.327M266.588 3.222c-4.77-.505-17.35-1.994-19.55-4.189-1.43-1.432-6.21 2.016-8.38.931-1.52-.764-5.81-3.722-6.98-1.396-1.05 2.113-2.64 6.195-.46 8.377.96.965 3.93.678 5.12 1.862 2.39 2.393-3.06 5.455 2.79 8.378 6.39 3.193 8.69-14.118 14.43-8.378.82.825 16.28 8.852 17.69 7.447 1.73-1.731 5.31-2.982 7.44-5.12 1.18-1.177-8.41-7.522-12.1-7.912M8.739 104.688c-.75 1.817 1.39 2.854 1.39 4.655 0 1.719.47 2.89.47 4.654 0 2.215 3.02 12.334 6.98 8.378 1.51-1.514 2.89-3.818 4.65-5.585.39-.388 8.92-.388 9.31 0 1.37 1.366 5.15 1.427 6.52 2.793 1.04 1.039 7.18-3.062 8.84-1.397 1.05 1.045 9.88 2.692 11.64.931 2.4-2.405-.54-10.162 1.86-12.567.65-.654 2.28-1.35 2.79-1.862 1.23-1.225 7.17 2.509 7.92 3.259 1.34 1.341 9.32 3.272 9.77 3.723 1.12 1.121.09 4.277 1.4 5.585 1.29 1.294 8.2.635 9.3-.465 1.25-1.241 1.56-3.413 2.8-4.654 2.1-2.105 8.329 5.203 10.7.465 1.359-2.712-4.24-14.02-6.05-15.825-2.01-2.012-5.31-2.515-7.45-4.655-2.74-2.74 3.38-7.331 1.4-9.308-2.04-2.045-9.86-.168-11.17-2.793-1.91-3.816 8.83-5.596 4.19-10.24-.72-.723-3.1-1.032-4.19-1.396-9.83-3.276-7.91 10.709-11.17 7.447-3.37-3.373-.79-4.116-6.52-6.982-1.72-.862-9.31 1.692-9.31-.465 0-3.123 5.49-6.886 6.99-8.378 2.3-2.299-5.62-8.817-6.99-7.447-1.86 1.862-5.12 2.327-6.98 4.189-2.57 2.571.17 11.006-2.32 13.498-1.8 1.8-8.1-1.214-10.24.931-1.69 1.681 1.89 14.364 0 18.152-3.09 6.176-10.12-7.57-14.43-3.258-4.52 4.517 2.73 12.162 0 14.894-2.79 2.787-10.18-.974-12.1 3.723m194.549-24.203c-3.39 3.243-15.51-1.246-17.22.466-4.49 4.492-2.41 8.378-10.71 8.378-.83 0-2.74.052-3.25-.466-4.5-4.492-1.17-11.054-6.99-13.963-6.23-3.115-9.88 14.787-8.37 16.291 3.26 3.262 8.84 6.514 11.17 8.843 3.971 3.97 4.711 9.828 8.381 13.498.89.896 4.47 2.885 6.51 1.862 4.73-2.363 1-7.112 3.26-11.636 1.06-2.122 4.08-5.476 5.58-6.982 3-2.999 13.93-.896 19.549-6.516 3.76-3.752-6.52-11.102-7.91-9.775m104.26-122.876c-1.63 1.3-4.1 5.305-2.79 7.912 2.03 4.071 6.391 8.723 9.31 11.636 1.97 1.973-.85 8.925.93 10.705 5.75 5.753 4.18 16.288 9.31 21.411 2.25 2.254 8.59-1.862 10.24-1.862 3.01 0 7.97 6.923 11.63 3.258 3.57-3.567-2.339-8.39-4.19-10.24-1.339-1.347 1.57-4.015 0-5.585-1.18-1.179-3.05-2.125-4.19-3.258-2.54-2.545-8.38.926-12.56-3.258-3.77-3.764 15.891-12.495 12.56-15.825-6.31-6.311-16.14.147-18.15-1.862-3.86-3.863-7.04-17.061-12.1-13.032" style="fill:#144043"/><path id="Rocks" d="M201.638 24.805c-.71-.159-1.45-.268-2.15-.467-.55-.155-.47-.713-.78-1.067-.77-.868-2.16-1.365-2.58-2.35s.2-1.946.45-2.898a1.42 1.42 0 0 1 1.19-1.06c1.26-.177 2.52.2 3.78.04.57-.075.81-.65 1.38-.772 1.14-.248 2.4.046 3.33.67.55.364 1.13.881 1.1 1.566-.06 1.133-.45 2.225-.87 3.277-.35.86-.64 1.793-1.35 2.455-.52.483-1.25.802-1.96.886-.52.061-1.03-.186-1.54-.28m6.76 32.806c.63 0-.79.615-1.01 1.058-.21.426.15 1.364.15 1.864 0 .14-.02.283.05.353.08.075-.02.327.05.403.12.115-.24.61-.05.806.5.5 1.07.616 1.51 1.058.13.128.62-.26.71-.303.5-.25.54-.843.8-1.108.18-.17.96-.3 1.47-.806.2-.202-.55-.915-.66-1.058-.33-.445-.41-.866-.6-1.259-.36-.706-1.42-.91-2.02-1.209-.13-.068-.55.201-.4.201" style="fill:#dcd5b6"/><g id="Water" style="fill:#4a6b96"><path id="East_River" d="M292.93-201.363c1.96 9.959 3.69 20.66 9.62 28.895 1.57 2.171 5.02 2.541 6.43 4.814 4.02 6.473 1.23 15.445 4.17 22.473 2.17 5.176 8.49 8.314 9.63 13.805 1.34 6.411-5.41 12.9-3.85 19.261 1.5 6.136 10.08 8.714 11.88 14.768 1.57 5.255-4.51 11.723-1.61 16.373 2.12 3.388 7.29 3.599 11.24 4.174 3.19.464 6.61-1.742 9.63-.643 3.34 1.216 6 4.262 7.7 7.385 2.15 3.923.73 9.092 2.58 13.162 1.73 3.822 6.28 6.002 7.7 9.951 1.23 3.427-.48 7.366.32 10.916.93 4.11 2.25 8.484 5.13 11.557 1.91 2.023 4.63 3.615 7.39 3.853 2.8.24 5.24-2.891 8.02-2.568 3.72.431 6.88 3.238 9.63 5.777 1.36 1.25 2.77 2.71 3.22 4.495.42 1.673-.45 3.423-.64 5.136-2.14 17.965-9.033 51.964-9.033 51.964l8.26 30.83 90.984-62.118L459.37 0l-27.76-27.681-17.02-6.266s2.73-4.042 1.83-5.881c-.79-1.582-3.35-2.508-4.98-1.824-1.11.47-.75 2.352-1.48 3.315-.75.966-1.69 1.879-2.82 2.32-1.5.579-3.23.532-4.81.248-2.6-.469-5.09-1.677-7.29-3.148a11.5 11.5 0 0 1-2.9-2.817c-1.11-1.542-.6-4.921-2.48-5.137-1.09-.125-.98 2.719-2.07 2.569-5.22-.717-5.49-9.289-6.22-14.496-.27-1.931.74-5.799.74-5.799l-20.29-41.754s-.93-9.519-3.72-13.09c-.97-1.227-3.45-.889-4.06-2.32-.66-1.513 1.14-3.157 1.16-4.805.01-2.01-.11-4.286-1.33-5.883-1.01-1.314-3.44-.97-4.39-2.318-1.44-2.022.02-5.163-1.13-7.359-1.19-2.251-3.36-3.96-5.56-5.231-1.48-.853-4.01-.013-4.9-1.471-.92-1.514 1.4-3.504.98-5.226-1.19-4.901-7.72-7.146-9.31-11.93-.99-2.945 1.18-6.377.16-9.312-1.58-4.576-7.93-6.592-9.15-11.274-.49-1.872 1.49-3.854.98-5.719-.38-1.379-2.39-1.891-2.78-3.267-.19-.69.38-1.41.33-2.125-.25-3.628-3.1-6.82-3.1-10.457 0-1.93 1.68-3.626 1.63-5.555-12.712-26.481-33.712-3.724-24.7 12.33"/><path id="Ocean" d="M-.001 1043.96V179.715h157.707v109.879H52.702v15.283h105.267v87.613h-105.4v15.547h105.4v5.401h43.741v433.85h67.719v7.51h72.857v-127.27h39.13v-9.09h32.147l74.711 278.826 346.67-92.89-6.196-23.125-7.016 1.88-70.147-261.793-24.168 6.476 63.344 236.404-97.586 26.148-143.047-533.857-62.841-16.838-65.048-242.762-21.892-21.892-8.261-30.83L459.37 0H887.7v1043.96Z"/></g><path id="Pavement" d="m392.087 44.186-22.618 6.06-10.187-1.885-51.662 16.766-18.82 56.332-76.907 40.023-9.662-5.207-50.849-.67v24.11h6.324v109.879H52.702v15.283h105.267v87.613h-105.4v15.547h105.4v5.402h43.741v433.85h65.138v9.176h-2.412v4.898h2.412v9.344h-5.187v9.254h5.187v15.908h-5.187v9.252h5.187v14.588h-5.187v9.252h5.187v14.586h-5.187v9.252c0 2.455.363 4.523 2.775 5.552 2.412 1.03 4.992 1.026 7.403 0 2.41-1.025 2.777-3.232 2.775-5.552v-9.252h-5.188v-14.586h5.188v-9.252h-5.188v-14.588h5.188v-9.252h-5.188v-15.908h5.188v-9.254h-5.188v-9.344h2.411v-4.898h-2.411v-1.666h72.858v-127.27h39.131v-9.092h32.146l74.711 278.827 346.67-92.891-6.195-23.123-7.016 1.879-70.148-261.793-24.168 6.476 63.343 236.405-97.585 26.146-143.047-533.855-62.84-16.838-65.049-242.764-21.893-21.89Zm-526.259 127.046 182.98 1.03s32.23 1.35 48.38 1.92l11.82-11.9c.01-1.86.01-3.7.01-5.56.72-.62 1.44-1.23 2.16-1.84-.02-1.34-.03-2.69-.05-4.02-.53-.46-1.02-1.07-1.59-1.44-81.24-2.18-162.48-4.37-243.71-6.55ZM385.833-11.492l13.47-34.81 6.11 2.363-13.47 34.809Z" style="fill:#c6c2c2"/><g id="Roads" style="fill:none;stroke:#888"><g id="Roads_Medium" style="stroke-width:8"><path d="M228.78-185.243c3.22 14.637 7.74 28.975 12.45 43.197 4.15 12.499 8.46 24.987 13.91 36.974 6.82 15.01 15.88 28.904 23.43 43.564 8.09 15.72 16.18 31.461 23.43 47.589 5.56 12.38 10.88 24.898 15.38 37.706 2.98 8.525 5.5 17.222 7.68 25.991 3.57 14.375 8.79 43.565 8.79 43.565l123.723 460.426s4.629 17.71 5.157 20.98-17.621 3.776-17.621 3.776l-178.053.491M231.35 391.523v-201.53s-.42-10.65-2.57-15.38c-2.86-6.32-7.93-11.57-13.17-16.11-5.71-4.95-12.49-8.67-19.41-11.71-7.1-3.14-14.67-5.3-22.33-6.6-10.11-1.7-20.48-1.21-30.74-1.46-21.24-.5-42.47.26-63.71 0-30.498-.364-60.282-.973-90.094-1.673"/><path d="M144.63 138.753s23.53-2.4 35.18-4.43c11.5-2.01 23.03-4.29 34.16-7.82 9.99-3.17 19.94-6.79 29.08-11.9 7.72-4.32 15.15-9.42 21.43-15.64 6.27-6.22 11.57-13.51 15.81-21.26 4.08-7.49 6.83-15.72 9.01-23.973 2.24-8.487 3.31-17.269 4.08-26.014.79-9.035.59-18.134.51-27.203-.07-7.656.05-15.352-.85-22.953-.68-5.628-3.47-17.431-3.47-17.431m-58.22 355.506h162.233m-86.67 0v89.397h110.692m-33.077 173.66V440.167m0 92.9 47.557-74.15m-155.94 119.775v-93.068m168.964 92.901 100.172 376.038 269.111-72.108-66.137-246.827"/><path d="m536.411 921.265 53.43-14.295-23.99-89.53 57.867-15.505"/></g></g><g id="Unacessible" style="fill:#37414c;opacity:.8"><path d="M359.282 48.361 307.62 65.127l-18.82 56.332-76.907 40.023-9.662-5.207-50.849-.67v24.11h6.324v109.879H52.702v15.283h105.267v87.613h-105.4v15.547h105.4v5.402h43.741v433.85h65.138v9.176h-2.412v4.898h2.412v9.344h-5.187v9.254h5.187v15.908h-5.187v9.252h5.187v14.588h-5.187v9.252h5.187v14.586h-5.187v9.252c0 2.455.363 4.523 2.775 5.552 2.412 1.03 4.992 1.026 7.403 0 2.41-1.025 2.777-3.232 2.775-5.552v-9.252h-5.188v-14.586h5.188v-9.252h-5.188v-14.588h5.188v-9.252h-5.188v-15.908h5.188v-9.254h-5.188v-9.344h2.411v-4.898h-2.411v-1.666h72.858v-127.27h39.131v-9.092h32.146v-9.759h-35.185v8.576h-46.827v127.412h-65.203V687.715h5.444V630.68l-3.18-5.512-2.264 1.49v44.449h-8.168v9.897h-10.593v-69.813h-2.633v-17.375h2.363v-25.361h-2.172v-12.203h2.492v-3.832h8.305l4.863-8.424v-9.336h6.571l11.404-11.402h10.316v20.105h82.153v-45.017l-4.473-25.686v-39.322h30.93v5.177l5.252 2.516 28.718-7.693-2.355-8.785 6.066-1.625-3.898-14.543 14.441-3.871.883 3.293 4.281-1.149-.392-1.467-1.354-4.025-24.052 6.445 3.748 13.992-10.108 2.709 1.385 5.17-12.424 2.36-84.568-15.651h-2.09l-11.504-9.517-1.588 1.908-3.305-1.908v-10.549h-2.484v8.754h-3.937v-5.467h-9.342v-11.289h-26.819v23.414h-83.113l-2.582-4.471V286.793l-6.529-5.584-1.809-10.86v-8.585h53.086v-31.295h4.229v-8.998h13.711l1.447-1.37v-46.187l48.793-26.217 11.248-3.014 31.922-8.625 6.271 3.467 14.828-3.972-15.291-64.403 16.295-4.367 14.141 3.79 5.916-10.247-2.879-10.744-2.475.664Zm260.823 569.304-12.807-8.896-6.701 1.796-1.814-6.77-22.777-2.136-25.181 6.747-6.394-23.861 2.17-.582-3.138-11.71-2.228.597-11.255-42.002 10.897-2.92-5.308-19.81-41.181 11.035-20.986-78.32 4.6-1.232-5.652-21.094-7.982 2.139-1.068-3.985-1.338-5.167 44.626-12.2-12.519-47.707-2.915-10.882 58.974 15.802Zm41.875 156.278-10.988 2.944 1.73 6.454-13.497 3.616-1.698-6.338-3.814 1.022-18.537 18.537-12.269 3.287-20.852-77.818 12.195-3.267 1.201 4.479 19.767-5.297-.986-3.682 19.453-5.213-2.104-7.853 11.08-2.969Z"/><path d="m503.963 537.191 7.611-2.039 11.231 41.915-2.491.667 3.251 12.133 2.413-.647 6.439 24.032-4.581 1.227 5.255 19.613 10.881-2.915 13.583 3.639-1.802-6.725 11.648-3.121 10.856 40.516-2.214.593 2.015 7.521 2.7-.724 8.015 29.911-11.964 3.205-.774-2.887-14.186 14.185v13.829l2.215-.593 20.748 77.431-12.359 3.311-7.067-26.374-2.168.581-11.942-11.942-16.969-4.547-2.844-10.613-4.603 1.234-2.941-10.979-18.203-4.877-1.117-4.167 3.959-6.857-15.131-56.47-5.116 1.371-11.479-42.843 4.948-1.326-9.188-34.291 9.91-17.164 12.187-3.266.657 2.455 13.614 3.648-.953-3.559 5.102-1.367-3.074-11.474-2.635.706-6.737-25.142 4.722-1.266Zm194.46 351.767 3.946 14.725 6.881-1.844 2.238 8.353 2.704-.725 6.816 25.436 2.5-.67-7.206-26.894-2.811.753-2.58-9.632-2.861.767-3.212-11.988Zm-161.275 95.21-4.143-15.462-6.877-24.632-38.358 10.384-10.231 2.742 10.735 40.064Zm-195.88-648.293h18.766v58.658h-18.766Z"/></g><path id="Limit" d="m392.086 44.185-22.616 6.06-10.188-1.884-51.663 16.767L288.8 121.46l-76.907 40.022-9.661-5.207-50.85-.67v24.11" style="fill:none;stroke:#000;stroke-width:2"/><g id="Fences" style="fill:none;stroke:#c4e3c3;stroke-width:1"><path d="m303.286 154.306-42.074 11.274 5.93 22.135m.732 2.73 3.368 12.568 15.86-4.25m23.019-42.225 5.314 19.832m.897 3.346 2.776 10.362-9.119 2.444m-39.992 35.566h14.13m5.059 0h6.898m-26.087 76.582h13.368m5.405 0h7.314m32.198-.874h3.453m4.436 0h4.783m-77.106 25.578v-23.848m-13.511 59.814h-6.708v6.797m0 5.405v20.545m18.631.015v-9.98h26.821V376.78m0-6.376v-13.837m0 31.556v11.29m102.105-76.146 6.278 23.363h-8.698m-16.75 218.15v9.462h-82.42v-5.236m-23.247-96.346v102.542m0 6.288v246.708m0 16.468h65.203V717.254h46.827V583.16H266.35"/><path d="M278.193 813.962h40.73V695.419h-40.73zm0-77.454h40.73m-40.73 37.042h40.73m-30.67-149.11h-16.46m0 6.155v59.6m3.293 0h23.36m6.485 0h13.703m4.443 0v-55.904m0-6.487v-3.363h-23.2m30.437 14.629h40.654v66.37h-40.654zm-6.984-200.555v7.53h-35.48v26.615h-84.392v-61.122m17.206 0H159.41m61.903-149.775H159.62v-82.048h65.921v50.753h-4.228Zm19.388-76.631v-11.217l48.792-26.218 11.248-3.014m-61.488 76.787h-13.71m63.538 177.943h9.342v12.508h-9.342zm-26.821 12.125v61.122M-66.936 172.364l113.67.8m4.3.1 46.47 1.83 9.85-9.89m2.62-2.83.06-5.4 2.09-1.73-.1-4.88-1.83-1.77-32.7-.79m-5.97-.15-43.49-1.21m-6.39-.26-20.85-.42"/></g><g id="Buildings" style="fill:#1a2632"><path id="Powerline_Towers" d="m79.25 45.316 4.71 4.661 4.81-4.866-4.7-4.66Zm54.53 63.733 4.82-4.525-4.53-4.833-4.83 4.525Zm52.37 63.482 5.24-4.128-3.85-4.854-5.23 4.149Z"/><g id="15degrees"><path d="m341.96 63.53-1.308-4.882 7.124-1.91 7.125-1.908 1.308 4.882 1.308 4.883-7.124 1.909-7.125 1.909Zm39.18 6.322-1.322-4.932 7.075-1.896 7.074-1.895 1.322 4.932 1.322 4.932-7.075 1.896-7.075 1.896ZM304.289 158.1l-2.007-7.588-2.006-7.589 21.986-16.507 4.793 1.051 3.199-1.801 5.316 1.906 3.364 11.954-2.292.614 2.323 8.669Zm2.871 5.532-.827-3.089 1.444-.387 1.445-.387.828 3.089.828 3.089-1.445.387-1.445.387Z"/><path d="m324.104 163.097-2.576-9.616 7.174-1.922 7.174-1.923 2.577 9.616 2.283 8.519-7.175 1.923-7.174 1.922Zm-47.079 28.367-.213-.797 4.484-1.202 4.484-1.201.213.797.214.797-4.484 1.202-4.484 1.201Zm27.053-5.059-.414-1.545 3.188-.854 3.189-.855.414 1.545.414 1.544-3.189.855-3.188.854Zm-12.31 3.084-.921-3.437 3.388-.908 3.388-.908.921 3.438.921 3.438-3.388.907-3.388.908Zm22.422-4.405-.628-2.342 1.096-.294 1.097-.293.627 2.341.627 2.342-1.096.293-1.096.294Zm-35.75 11.661-.213-.797 4.484-1.202 4.484-1.201.213.797.214.797-4.484 1.202-4.484 1.201Zm-6.261-1.846-1.202-4.484.797-.214.797-.213 1.202 4.483 1.201 4.484-.797.214-.797.214Zm82.032-76.02 28.314-7.587 15.085 56.298-28.099 7.529Zm-63.925 92.207-3.383-13.084 22.909-6.139 3.498 13.054Z"/><path d="m293.481 214.315-2.175.552-.387-1.443-.627-2.34 15.445-4.138.641 2.391.4 1.495zm42.706-10.509-3.524-13.153 16.839-4.513 3.525 13.153 3.791 14.15-8.42 2.256-8.419 2.256Z"/><path d="m335.418 219.177 10.7-2.867 10.7-2.867 9.131 34.078-10.822 2.9-10.823 2.9Zm98.952 137.419 22.52-6.034 3.551 13.253-22.52 6.034Zm16.332 48.596 8.071-2.163-3.177-11.858 13.252-3.551-.56-2.092 1.594-.427.561 2.092 15.943-4.272-.614-2.291 4.085-1.095.641 2.391 7.174-1.922-7.334-27.37 11.225-3.148 1.655 6.177 7.374-1.975 12.575 46.931-68.754 18.423Zm-25.414 285.389-5.433-20.277 3.686-.988 4.847-1.423 10.866 40.555-4.846 1.422-3.687.988Z"/><path d="m430.427 676.282-10.159-37.915 11.559-3.097 11.558-3.097 10.159 37.914 10.159 37.914-11.558 3.098-11.559 3.097Zm10.538 54.473-1.575-5.879 17.636-4.726 17.637-4.726 1.575 5.879 1.576 5.879-17.637 4.726-17.637 4.725Zm4.726 17.636-1.576-5.879 17.637-4.725 17.637-4.726 1.575 5.879 1.576 5.879-17.637 4.726-17.637 4.725Zm5.773 20.352-1.763-6.581 22.419-6.008 1.763 6.579 1.763 6.579-22.417 6.017Zm43.574 169.393-1.429-5.331 9.117-2.442 9.118-2.443 1.428 5.33 1.429 5.331-9.118 2.443-9.117 2.443Zm142.433-41.812-4.579-17.089 20.445-5.568 19.43-5.207 4.579 17.089 4.579 17.089-19.43 5.206-20.445 5.569Z"/><path d="m588.447 877.811-12.602-47.031 20.576-5.514 20.576-5.513 12.603 47.031 12.602 47.032-20.577 5.513-20.576 5.513Zm-97.542 88.346-3.458-12.904 20.228-5.42 20.227-5.42 3.458 12.904 3.457 12.903-20.227 5.42-20.228 5.42Z"/></g><path id="Straight" d="M194.898 169.688h14.236v8.562h-14.236Zm-31.304 14.102h13.251l.109 22.983-13.21.053Zm24.9 29.841.111-29.838 14.305.126-.14 29.714Zm22.29-29.295h14.339v29.813h-14.339Zm28.469 37.137v-36.338h17.528l-.102 36.338Zm-76.025 23.829 28.575-.136v4.779l9.508.103v8.934l-38.083.144Zm40.129 6.293h16.711v8.15h-16.711Zm-40.129 15.68 4.541-.035v2.408h-4.541Zm106.769-22.925 8.587.024-.286 41.867-8.301.147Zm49.774 60.529v-41.937h8.511v41.937Zm-23.687.547v-78.289h23.687v78.289Zm-49.601.014-.198-78.317 23.712.203v78.234Zm94.59-38.299 27.079.271.109 41.842-27.326.123Zm-90.688 100.942-.081-4.635-.011-1.673-1.108-.03-1.109-.029-.027-6.834-.026-6.834h2.477v-7.221l11.76.023v-11.474h13.307v11.451l12.431-.001v-1.56h3.61l3.507-.038.061 1.599h1.332l.052 15.731-17.511.026-17.511.026v11.473Zm-78.493 18.833v-1.424h-1.856V281.209l1.695-.06.01-1.341 30.399-.052-.07 1.393 1.913.059-.029 47.67-.082 56.71-1.699.06-.061 1.27h-30.22Zm73.347-1.422h3.507v6.19h-3.507Zm112.408-52.146 26.361.103-.023 61.946h-26.304Zm-40.249 0 26.314-.06.043 62.109h-26.306Zm-38.787 76.594.009-18.001 9.978-.053v18.054Zm13.358-5.776h3.508v6.189h-3.508Zm-71.316 9.318.06-10.263 9.31-.035-.056-5.107 33.222.026.135 15.448Zm177.053 4.72h6.723l4.108 16.156-3.43 3.641h-7.401Zm-157.42 6.178h24.185l-.01 14.031h-24.178Zm83.043-10.489h74.377v24.624h-74.377Zm-82.905 28.278.016-3.758h15.629v3.758Zm-33.044-14.795h12.664l.034 21.844-12.698.129Zm20.63 31.46v-11.738l18.145.031 17.522.039-.052 11.678Zm107.698-20.319h39.558l-.1 25.594-39.458.076Zm-46.574 12.534 3.462.126-.008 13.439h-3.517Zm-2.942 21.611h86.344v25.687h-86.344Zm.174 58.922-.174-25.602h86.448l-.053 25.635Zm.018 33.015-.032-25.454 86.389-.052v25.687Zm134.724-35.287h10.546l.111 9.205h4.891v30.51h-15.431Zm-2.425 75.496v-13.485l23.947-.059.053 13.544Zm-117.974 4.016.079-8.574h-3.672v-11.744h3.517v-3.507l22.082.129-.116 7.762 3.669.104-.052 10.057h-1.547v4.881l-14.47-.119v1.127Zm117.974-4.016h15.545l-.057 4.381-15.488.053Zm-146.028 10.674.022-9.456h18.958l-.031 9.456Zm70.48-13.049h24.757v21.56h-24.757Zm48.174.722h6.912v92.223h-6.912ZM282.168 826.801h46.524v11.554h-46.524Z"/><g id="Cilinders"><circle cx="297.728" cy="793.951" r="14.592"/><circle cx="297.728" cy="755.649" r="14.592"/><circle cx="297.728" cy="716.344" r="14.592"/><circle cx="284.588" cy="673.024" r="8.412"/><circle cx="310.648" cy="673.024" r="8.412"/><circle cx="284.588" cy="645.148" r="8.412"/><circle cx="310.648" cy="645.148" r="8.412"/><circle cx="342.507" cy="692.686" r="7.267"/><circle cx="361.479" cy="692.686" r="7.267"/><circle cx="342.507" cy="672.138" r="7.267"/><circle cx="361.479" cy="672.138" r="7.267"/><circle cx="342.507" cy="651.806" r="7.267"/><circle cx="361.479" cy="651.806" r="7.267"/></g></g><g id="Railroad" style="fill:none;stroke:#914833;stroke-dasharray:6;stroke-width:3"><path d="m386.1-199.687 4.09 35.774 3.28 15.293 19.12 35.229 4.37 18.296-3.28 18.297-47.632 127.853c-2.898 5.432-6.49 12.991-8.446 18.216s-3.942 12.652-2.637 18.851l33.63 127.696 14.716 53.987 15.819 58.989s1.469 6.963 1.547 10.5c.067 2.993-.53 5.965-.912 8.934-.389 3.017-1.189 5.983-1.403 9.018-.259 3.687.155 11.087.155 11.087l142.399 531.37"/><path d="M361.55 60.474s-2.061 5.524-2.163 8.687c-.094 2.931 1.293 8.702 1.293 8.702l66.723 250.054s1.591 7.68 1.516 11.568c-.073 3.764-1.328 7.411-1.899 11.132-.654 4.264-1.717 8.51-1.748 12.824-.029 4.093 1.484 12.191 1.484 12.191l139.82 522.677M372.651 90.372l47.523 175.721m-12.639-164.307 71.621 266.736m-66.618-268.053 71.621 266.737m-52.663-135.343 37.654 138.766"/><path d="m555.517 901.206-92.16-343.624s-.596-7.896-.79-11.85c-.274-5.613-1.138-17.271-1.138-17.271" style="stroke-dashoffset:1.5"/><path d="m550.514 902.522-77.678-289.645s-.3-7.902-.526-11.849c-.287-5.007-1.054-15.009-1.054-15.009"/><path d="m390.683 698.191-.264-150.352s1.13-8.95 2.633-13.166c1.636-4.586 6.847-12.902 6.847-12.902l32.914-51.873s3.859-8.943 4.739-13.692c.961-5.181.537-14.84.537-14.84" style="stroke-dashoffset:3.3"/><path d="M398.582 697.664V539.413s.961-10.144 2.37-15.009c1.356-4.683 5.733-13.328 5.733-13.328" style="stroke-dashoffset:6.3"/><path d="m472.573 910.422-56.349-208.545s-1.089-5.57-1.41-8.387c-.27-2.372-.433-7.148-.433-7.148l1.58-181.423s.674-5.781 1.47-8.567c.794-2.776 3.678-8.24 3.678-8.24" style="stroke-dashoffset:6.6"/><path d="m477.313 909.369-60.299-226.187s-1.221-5.082-1.615-7.662c-.399-2.606-.755-7.873-.755-7.873" style="stroke-dashoffset:7.2"/><path d="M404.638 275.309s-1.451-9.461-1.316-14.219c.1-3.548 1.528-6.982 1.579-10.532.074-5.127-1.843-15.272-1.843-15.272"/><path d="M389.748 220.048s-1.307-9.496-1.172-14.254c.1-3.548 1.529-6.982 1.58-10.532.074-5.127-2.178-15.096-2.178-15.096" style="stroke-dashoffset:9.9"/><path d="M397.903 217.361s-.509-9.705-.374-14.463c.1-3.549 1.529-6.983 1.58-10.533.074-5.127-3.007-15.278-3.007-15.278" style="stroke-dashoffset:7.8"/><path d="M408.855 224.242s3.499 9.944 6.316 14.203c5.722 8.653 15.112 14.413 21.065 22.909 2.951 4.211 6.657 12.51 6.657 12.51" style="stroke-dashoffset:6.6"/><path d="M451.347 305.02s3.724 9.419 6.217 13.736c3.227 5.586 7.72 10.392 10.796 16.062 2.138 3.941 5.266 12.376 5.266 12.376" style="stroke-dashoffset:3.9"/><path d="M437.047 211.566s3.147 8.534 5.245 12.397c.977 1.799 2.194 3.461 3.16 5.266 1.741 3.254 4.557 10.676 4.557 10.676" style="stroke-dashoffset:5.7"/></g><path id="Powerlines" d="m.05-20.407 83.96 65.621 49.91 59.156 52.93 63.67" style="fill:none;stroke:#ffce00;stroke-width:2;stroke-miterlimit:10;stroke-dasharray:6,6"/><path id="Mines" d="m222.92 153.685 64.77-32.962 19.08-56.119 12.39-3.857-19.92-9.952-21.35 62.004-60.58 30.291Z" style="fill:red;fill-opacity:.4;stroke:red;stroke-dasharray:4,2;stroke-width:2"/></g><g id="First_Floor" data-keep-with-group="Ground_Level" style="filter:drop-shadow(0 0 2px #000)"><path id="Stairs-1" d="M316.948 705.743h3.949v6.632h-3.949Zm0 45.631h3.949v6.632h-3.949Zm0 38.192h3.949v6.631h-3.949Zm-11.684-54.93h6.938v3.744h-6.938Zm0 37.043h6.938v3.743h-6.938Zm0 40.364h6.938v3.744h-6.938Z" style="fill:gold"/><g id="Floors-1" style="fill:#70777f"><path d="M390.734 414.213v5.832h-.388v-1.494h-6.457v15.031h6.457v-1.496h.388v6.08h1.828v.35h3.188v-.35h1.555v-8.041h-6.571v.4h-.388v-.4h-2.532v-8.158h2.532v-.362h.388v.362h6.571v-7.754Z"/><path d="M392.645 413.89v1.227h2.89v-1.226zm-109.91 413.444v1.92h-.565v2.717h.564v3.168h38.649v-3.817h2.469v.45h-1.995v3.367h6.309v-3.368h-2.37v-.449h2.395v-3.988zm-26.354-486.498v.523h-.996v4.918h2.906v2.45h3.689v7.416h3.875v.459h2.026v-.459h2.228v-1.881h-6.336v-7.985h-2.574v-4.918h-2.748v-.523Zm6.367-10.941v2.748h-.488v1.859h.488v2.977h12.354v-.247h.464v-1.423h-.464v-.303h-4.147v-.428h4.147v-5.183h-6.821v5.183h.836v.428h-1.324v-5.611Zm-77.197-22.207v14.804h-.393v-3.066h-5.844v5.267h5.844v-.55h.393v.914h-6.237v16.642h5.844v5.582h.838v11.61h3.223v-11.61h8.092v-2.176h6.22v-4.406h.453v-2.804h-.453v-.594h-6.22v-2.162h6.22v-5.446h-1.881v2.047h-4.339v-2.047h-.182v-.363h6.402v-.627h.426v-3.035h-.426v-.611h-7.771v4.273h.181v.363h-.539v-10.267h-6.289v-11.738Zm150.605-154.602-8.25 2.211 3.846 14.355.836-.224.131.492 1.726-.463-.115-.496 5.674-1.52Z"/></g></g></svg>